<?xml version="1.0" encoding="utf-8"?>
<svg version="1.1" xmlns="http://www.w3.org/2000/svg" width="1024" height="1024" style="filter: url(&quot;#drop-shadow-filter-0&quot;);" xmlns:bx="https://boxy-svg.com">
  <defs>
    <filter id="drop-shadow-filter-0" bx:preset="drop-shadow 1 10 10 0 0.5 rgba(0,0,0,0.3)" color-interpolation-filters="sRGB" x="-50%" y="-50%" width="200%" height="200%">
      <feGaussianBlur in="SourceAlpha" stdDeviation="0"/>
      <feOffset dx="10" dy="10"/>
      <feComponentTransfer result="offsetblur">
        <feFuncA id="spread-ctrl" type="linear" slope="1"/>
      </feComponentTransfer>
      <feFlood flood-color="rgba(0,0,0,0.3)"/>
      <feComposite in2="offsetblur" operator="in"/>
      <feMerge>
        <feMergeNode/>
        <feMergeNode in="SourceGraphic"/>
      </feMerge>
    </filter>
  </defs>
  <path d="M0 0 C2.83599801 1.2171758 5.24190667 2.90228312 7.75 4.6875 C9.24830339 5.70500827 10.74701851 6.72191047 12.24609375 7.73828125 C13.0232373 8.27404785 13.80038086 8.80981445 14.60107422 9.36181641 C18.62263545 12.10806878 22.7215037 14.7338403 26.8125 17.375 C28.50039815 18.4720439 30.18789505 19.56970541 31.875 20.66796875 C35.31065799 22.9025911 38.74828547 25.13413674 42.1875 27.36328125 C50.32594062 32.64068403 58.44516031 37.94133104 66.50268555 43.34155273 C71.01336624 46.35859034 75.56231761 49.31233163 80.125 52.25 C86.9042895 56.62255846 93.65072791 61.04328203 100.375 65.5 C101.28523926 66.09973633 102.19547852 66.69947266 103.13330078 67.31738281 C103.9839209 67.88295898 104.83454102 68.44853516 105.7109375 69.03125 C106.46681152 69.53205078 107.22268555 70.03285156 108.00146484 70.54882812 C108.66098145 71.02771484 109.32049805 71.50660156 110 72 C110.79095314 72.54275826 110.79095314 72.54275826 111.59788513 73.09648132 C113.80439826 76.0920554 113.43912131 79.32556409 113.43237305 82.9074707 C113.44766052 84.11867081 113.44766052 84.11867081 113.46325684 85.3543396 C113.49359858 88.04488977 113.50271062 90.73508152 113.51171875 93.42578125 C113.52860726 95.32587308 113.54676293 97.22595402 113.56611633 99.12602234 C113.61382078 104.1666611 113.64342001 109.20725646 113.66955566 114.24804688 C113.69868196 119.22210534 113.74563848 124.1959898 113.79101562 129.16992188 C113.8440702 135.04095167 113.88998033 140.9117296 113.90621948 146.7829895 C113.91181106 148.72072381 113.91751723 150.65845778 113.92333984 152.59619141 C113.92617918 153.54533983 113.92901852 154.49448826 113.93194389 155.47239876 C113.95825739 161.12406709 114.05671923 166.76871503 114.22180843 172.41800785 C114.32180259 175.94246428 114.39253413 179.46720773 114.45981789 182.9924221 C114.49912835 184.63035119 114.55267208 186.26801054 114.62155724 187.90496254 C115.13840802 200.31668371 115.13840802 200.31668371 112.32339478 204.47912598 C110.29562567 206.29871749 108.36352919 207.65614829 106 209 C104.66130262 209.87736663 103.32273862 210.75493683 101.984375 211.6328125 C100.57702434 212.4704817 99.16537455 213.30096089 97.75 214.125 C91.15963876 218.05766975 84.6693358 222.10626789 78.25 226.3125 C70.21980166 231.56708889 62.14979107 236.7537582 54.03613281 241.87866211 C49.66758467 244.64273189 45.32664492 247.43391198 41.04296875 250.328125 C40.27299561 250.84358887 39.50302246 251.35905273 38.7097168 251.89013672 C37.28279403 252.84898594 35.86306064 253.81866278 34.45239258 254.80126953 C30.57030051 257.39722435 27.83670554 258.86776188 23 258 C20.58036433 254.3705465 20.73348967 252.6484999 20.69702148 248.32446289 C20.688534 247.64579635 20.68004652 246.9671298 20.67130184 246.26789761 C20.6452566 244.00280704 20.63317403 241.73786105 20.62109375 239.47265625 C20.60558328 237.86852155 20.58917712 236.26439529 20.57192993 234.66027832 C20.53664925 231.24010592 20.50708471 227.81994687 20.48147583 224.39968872 C20.44011184 219.06367239 20.37602432 213.72807222 20.30834961 208.39233398 C20.12714025 193.70242032 19.95630165 179.01532966 20.04924011 164.32423401 C20.07580321 159.50354176 20.0684484 154.68324758 20.05569458 149.86251831 C20.06020441 147.67565637 20.08283299 145.48875121 20.12423706 143.30227661 C20.82247869 132.24484965 20.82247869 132.24484965 17.01464844 122.3371582 C14.42246375 120.47618603 11.92918744 119.25067309 9 118 C7.48144343 117.0230187 5.98263877 116.01447869 4.5078125 114.97265625 C3.04766791 114.00141106 1.58671907 113.03137397 0.125 112.0625 C-1.45572917 111.01171875 -3.03645833 109.9609375 -4.6171875 108.91015625 C-5.74979004 108.15822998 -5.74979004 108.15822998 -6.90527344 107.39111328 C-9.60588833 105.59762801 -12.30315536 103.79914844 -15 102 C-15.93199219 101.37867188 -16.86398437 100.75734375 -17.82421875 100.1171875 C-26.203125 94.53125 -34.58203125 88.9453125 -42.9609375 83.359375 C-43.58274902 82.94486084 -44.20456055 82.53034668 -44.84521484 82.10327148 C-46.06439072 81.29043371 -47.28346776 80.47744766 -48.50244141 79.66430664 C-51.70759533 77.52652864 -54.91487833 75.39203123 -58.125 73.26171875 C-58.80473877 72.81006348 -59.48447754 72.3584082 -60.18481445 71.89306641 C-61.48219004 71.03110164 -62.78016686 70.17004086 -64.07885742 69.31005859 C-66.54098284 67.67315289 -68.95143721 66.03883345 -71.26171875 64.19140625 C-73.01683593 62.70047748 -73.01683593 62.70047748 -75.625 63.375 C-79.43555749 65.20971287 -82.65472574 67.43492036 -86.078125 69.90625 C-90.48007149 73.06058599 -94.99188288 76.04228106 -99.51171875 79.0234375 C-102.97505551 81.30785091 -106.40505286 83.63799732 -109.83203125 85.9765625 C-111.88767145 87.35989433 -113.94366077 88.7427075 -116 90.125 C-117.468927 91.13916992 -117.468927 91.13916992 -118.9675293 92.17382812 C-127.84870502 98.09410385 -127.84870502 98.09410385 -134 97 C-137.25370755 94.91429003 -137.86799506 93.45761712 -138.9375 89.75 C-137.82217062 85.28868249 -136.94814882 84.87261263 -133.28515625 82.3203125 C-132.28427979 81.62035156 -131.28340332 80.92039062 -130.25219727 80.19921875 C-125.30542452 76.85408484 -120.33106954 73.5551211 -115.32086182 70.30603027 C-112.13418243 68.23911625 -108.9539867 66.16226747 -105.7734375 64.0859375 C-105.12422333 63.66235962 -104.47500916 63.23878174 -103.80612183 62.80236816 C-97.21519946 58.49717895 -90.66781675 54.12780577 -84.125 49.75 C-74.7438025 43.47575749 -65.32049398 37.27087655 -55.85791016 31.12011719 C-50.71750248 27.77745265 -45.59314316 24.41422617 -40.5 21 C-33.92816587 16.59634993 -27.31131057 12.26250653 -20.6875 7.9375 C-19.66527344 7.26912109 -18.64304687 6.60074219 -17.58984375 5.91210938 C-16.6359375 5.29013672 -15.68203125 4.66816406 -14.69921875 4.02734375 C-13.84158936 3.46781006 -12.98395996 2.90827637 -12.1003418 2.33178711 C-8.10092592 -0.20416705 -4.68050539 -0.68787981 0 0 Z " fill="#0184E2" transform="translate(287,383)"/>
  <path d="M0 0 C2.89420749 1.24428932 5.35215903 2.88883234 7.96362305 4.65185547 C8.52879639 5.03099594 9.09396973 5.41013641 9.67626953 5.80076599 C11.48408472 7.01527142 13.2864149 8.23764302 15.08862305 9.46044922 C16.26925168 10.25590708 17.45023829 11.0508339 18.6315918 11.84521484 C20.97829612 13.42412417 23.32309508 15.00580368 25.66650391 16.58959961 C32.33365727 21.09200871 39.03893323 25.53755497 45.7409668 29.98779297 C46.45575195 30.4628125 47.17053711 30.93783203 47.90698242 31.42724609 C49.3152328 32.36305118 50.72408368 33.29795325 52.13354492 34.23193359 C53.5776117 35.19247846 55.00420556 36.17983462 56.41168213 37.1932373 C59.09049869 39.01793762 59.09049869 39.01793762 62.3550415 40.18920898 C66.53214011 42.18049026 69.59973976 43.92061749 72.08862305 47.89794922 C74.41907161 56.30251287 73.64405675 65.41021532 73.40674424 74.05163121 C73.32503981 77.53063023 73.31780778 81.00979841 73.30241394 84.48960876 C73.26213087 91.06741393 73.15563654 97.64238409 73.02487057 104.21894497 C72.87916546 111.71074909 72.80799036 119.20269438 72.74282992 126.69556439 C72.60722784 142.09799692 72.37882771 157.49760645 72.08862305 172.89794922 C67.27281564 172.15706598 62.88069012 170.90626163 58.3112793 169.24560547 C57.58170517 168.98541122 56.85213104 168.72521698 56.10044861 168.45713806 C53.78227828 167.62964611 51.46658628 166.7954829 49.15112305 165.96044922 C46.83889364 165.12997852 44.52614987 164.30100302 42.21250916 163.47447205 C40.77798361 162.96165628 39.34430111 162.44647359 37.91163635 161.92848206 C37.25082565 161.69161179 36.59001495 161.45474152 35.90917969 161.21069336 C35.33881485 161.00497208 34.76845001 160.79925079 34.18080139 160.58729553 C31.17901824 159.59824594 28.12754396 158.76621234 25.08862305 157.89794922 C24.75862305 132.81794922 24.42862305 107.73794922 24.08862305 81.89794922 C18.67116711 79.48184447 18.67116711 79.48184447 13.22143555 77.83544922 C12.56272461 77.67818359 11.90401367 77.52091797 11.2253418 77.35888672 C10.56147461 77.20677734 9.89760742 77.05466797 9.21362305 76.89794922 C3.35197651 75.53906063 -2.16330993 73.81397156 -7.91137695 71.89794922 C-7.91137695 95.98794922 -7.91137695 120.07794922 -7.91137695 144.89794922 C-51.41137695 130.39794922 -51.41137695 130.39794922 -52.91137695 128.89794922 C-53.08655547 125.99968496 -53.19626113 123.12392811 -53.26293945 120.22241211 C-53.29930008 118.85640366 -53.29930008 118.85640366 -53.33639526 117.46279907 C-53.54820535 109.03460741 -53.67266898 100.60476426 -53.77069092 92.17455387 C-53.83767771 86.50974616 -53.93321041 80.84867127 -54.09790039 75.18579102 C-54.25640145 69.71179901 -54.34052363 64.24121259 -54.37347412 58.76507378 C-54.39857912 56.68233011 -54.44971907 54.59972465 -54.52789307 52.5182972 C-55.09590803 36.67405423 -55.09590803 36.67405423 -51.48077393 32.07993698 C-47.99138244 28.94562021 -44.10375029 26.84149755 -39.87349796 24.87215137 C-36.63463688 23.26404187 -33.75758872 21.20348848 -30.78637695 19.14794922 C-30.11807861 18.70507568 -29.44978027 18.26220215 -28.76123047 17.8059082 C-24.9581176 15.28486931 -21.19198693 12.71533634 -17.4387207 10.12060547 C-16.02067139 9.1504248 -16.02067139 9.1504248 -14.57397461 8.16064453 C-12.69820081 6.87713578 -10.82914666 5.58374177 -8.9675293 4.27978516 C-8.10981934 3.69616211 -7.25210938 3.11253906 -6.3684082 2.51123047 C-5.6050415 1.98311768 -4.8416748 1.45500488 -4.05517578 0.91088867 C-1.91137695 -0.10205078 -1.91137695 -0.10205078 0 0 Z " fill="#21AEFC" transform="translate(212.911376953125,467.10205078125)"/>
  <path d="M0 0 C2.30786133 1.23339844 2.30786133 1.23339844 4.76953125 2.859375 C5.73584473 3.49423828 6.7021582 4.12910156 7.69775391 4.78320312 C8.78749512 5.51474609 9.87723633 6.24628906 11 7 C11.89570709 7.59880981 11.89570709 7.59880981 12.80950928 8.2097168 C17.78276895 11.53596405 22.7361299 14.89129062 27.6875 18.25 C30.95794194 20.46672381 34.22887163 22.68272678 37.5 24.8984375 C38.76676826 25.75678696 38.76676826 25.75678696 40.05912781 26.63247681 C45.50527549 30.31989908 50.9623499 33.99057585 56.42765808 37.64953613 C60.12101966 40.12220043 63.81170351 42.598847 67.50234985 45.07556152 C69.28860255 46.27260886 71.07617635 47.46768724 72.86508179 48.6607666 C75.36534051 50.32863783 77.86085153 52.00339457 80.35546875 53.6796875 C81.10268188 54.17546295 81.84989502 54.6712384 82.61975098 55.18203735 C83.30234985 55.64258514 83.98494873 56.10313293 84.68823242 56.57763672 C85.28278732 56.97522186 85.87734222 57.37280701 86.48991394 57.78244019 C88 59 88 59 90 62 C81.86117319 68.79394945 72.92542874 74.32138156 64 80 C59.79032919 82.68540824 55.58233385 85.37343204 51.375 88.0625 C50.30572266 88.74570312 49.23644531 89.42890625 48.13476562 90.1328125 C42.0586854 94.02150385 36.00252238 97.93606721 30 101.9375 C29.38946777 102.34427979 28.77893555 102.75105957 28.14990234 103.17016602 C25.4447014 104.92056798 25.4447014 104.92056798 23 107 C22.76572222 109.01594582 22.58663876 111.038474 22.4375 113.0625 C22.31181641 114.71958984 22.31181641 114.71958984 22.18359375 116.41015625 C22.12300781 117.26480469 22.06242187 118.11945313 22 119 C22.66 119.33 23.32 119.66 24 120 C23.67 149.04 23.34 178.08 23 208 C22.67 208 22.34 208 22 208 C21.99714996 206.76273666 21.99429993 205.52547333 21.99136353 204.25071716 C21.95800313 192.58228173 21.8723985 180.91523949 21.73581886 169.24754238 C21.66727615 163.24905394 21.61705919 157.25158413 21.60888672 151.25268555 C21.60032021 145.46156579 21.54340193 139.6727438 21.45313644 133.88234138 C21.42718615 131.67493139 21.41857158 129.46724637 21.42769241 127.25970268 C21.98123758 115.57244246 21.98123758 115.57244246 17.83828735 105.15870667 C15.26976444 103.33426174 12.91365274 102.16910549 10 101 C8.48125186 100.02331652 6.97986725 99.01839109 5.5078125 97.97265625 C4.04766791 97.00141106 2.58671907 96.03137397 1.125 95.0625 C-0.45572917 94.01171875 -2.03645833 92.9609375 -3.6171875 91.91015625 C-4.74979004 91.15822998 -4.74979004 91.15822998 -5.90527344 90.39111328 C-8.60588833 88.59762801 -11.30315536 86.79914844 -14 85 C-14.93199219 84.37867188 -15.86398437 83.75734375 -16.82421875 83.1171875 C-25.203125 77.53125 -33.58203125 71.9453125 -41.9609375 66.359375 C-42.89353394 65.73784546 -42.89353394 65.73784546 -43.8449707 65.10375977 C-45.06536199 64.28989607 -46.28525837 63.47528975 -47.50463867 62.65991211 C-50.68821357 60.5325239 -53.88138458 58.42173641 -57.08984375 56.33203125 C-57.7650708 55.88939941 -58.44029785 55.44676758 -59.13598633 54.99072266 C-60.41778926 54.15087191 -61.70257557 53.31554828 -62.9909668 52.48583984 C-66.77866668 49.99559857 -69.84285302 47.23599178 -73 44 C-39.7796709 21.72198371 -39.7796709 21.72198371 -25.10131836 12.52856445 C-21.31211363 10.14722976 -17.57584322 7.74108782 -13.94921875 5.1171875 C-13.34561523 4.68124268 -12.74201172 4.24529785 -12.12011719 3.79614258 C-10.58794545 2.67280192 -9.07229299 1.52701734 -7.55859375 0.37890625 C-4.37301206 -1.33790343 -3.41376625 -0.98975843 0 0 Z " fill="#017FDD" transform="translate(286,400)"/>
  <path d="M0 0 C2.83599801 1.2171758 5.24190667 2.90228312 7.75 4.6875 C9.24830339 5.70500827 10.74701851 6.72191047 12.24609375 7.73828125 C13.0232373 8.27404785 13.80038086 8.80981445 14.60107422 9.36181641 C18.62263545 12.10806878 22.7215037 14.7338403 26.8125 17.375 C28.50039815 18.4720439 30.18789505 19.56970541 31.875 20.66796875 C35.31065799 22.9025911 38.74828547 25.13413674 42.1875 27.36328125 C50.32594062 32.64068403 58.44516031 37.94133104 66.50268555 43.34155273 C71.01336119 46.35858696 75.56214798 49.31260091 80.125 52.25 C86.95545393 56.65044248 93.73731 61.12113344 100.5 65.625 C101.42699707 66.24149414 102.35399414 66.85798828 103.30908203 67.49316406 C104.16614746 68.06518555 105.02321289 68.63720703 105.90625 69.2265625 C106.67259766 69.73783691 107.43894531 70.24911133 108.22851562 70.77587891 C110.92382094 72.63837351 110.92382094 72.63837351 111.6640625 76.15234375 C111 80 111 80 109.28808594 81.66064453 C106.71246196 83.42402285 104.08044919 85.00535817 101.375 86.5625 C99.33685103 87.79493057 97.29910115 89.02802135 95.26171875 90.26171875 C94.2154834 90.88353027 93.16924805 91.5053418 92.09130859 92.14599609 C87.39622993 94.96185673 82.79473211 97.91842198 78.1875 100.875 C76.36232976 102.03700919 74.53680288 103.19845838 72.7109375 104.359375 C67.64169909 107.58830166 62.57961204 110.82830798 57.51904297 114.07080078 C53.34431262 116.74524734 49.16748666 119.41640869 44.99023438 122.08691406 C43.01928569 123.34788352 41.04921183 124.61022157 39.08007812 125.87402344 C36.41022917 127.58691404 33.73686248 129.2941681 31.0625 131 C30.26948486 131.51062988 29.47646973 132.02125977 28.65942383 132.54736328 C27.93779053 133.0061084 27.21615723 133.46485352 26.47265625 133.9375 C25.84625244 134.33839844 25.21984863 134.73929688 24.57446289 135.15234375 C23 136 23 136 21 136 C19.65301156 125.87264247 19.65301156 125.87264247 22.44140625 121.99609375 C24.85723297 120.09368751 27.34560761 118.55530804 30 117 C31.19022988 116.25172056 32.37755879 115.49881397 33.5625 114.7421875 C36.26862491 113.02309903 38.98791473 111.3279888 41.71875 109.6484375 C48.03110911 105.75753136 54.24881785 101.72420429 60.45263672 97.66308594 C62.32904333 96.43804455 64.20877265 95.21808892 66.09033203 94.00097656 C69.42127275 91.84436514 72.74251349 89.67342848 76.0625 87.5 C77.14080078 86.80503418 78.21910156 86.11006836 79.33007812 85.39404297 C80.32587891 84.73807129 81.32167969 84.08209961 82.34765625 83.40625 C83.24492432 82.82166016 84.14219238 82.23707031 85.06665039 81.63476562 C86.02365845 80.82555664 86.02365845 80.82555664 87 80 C87 79.01 87 78.02 87 77 C84.62781368 75.12821035 82.28377885 73.47009588 79.76171875 71.8203125 C78.98990768 71.30351425 78.21809662 70.786716 77.42289734 70.2542572 C74.85066817 68.53494476 72.26911893 66.83017397 69.6875 65.125 C67.89658022 63.93133366 66.1063886 62.73657415 64.31689453 61.54077148 C60.52606703 59.00879975 56.73202688 56.48174149 52.93603516 53.95751953 C44.00154787 48.00937728 35.11267463 41.99355193 26.21939087 35.98406982 C21.67666131 32.91516247 17.13141756 29.84998763 12.5859375 26.78515625 C11.41184578 25.99310036 11.41184578 25.99310036 10.21403503 25.18504333 C8.78260959 24.21977182 7.34855507 23.25838205 5.91131592 22.30178833 C4.69069024 21.47042589 3.48814049 20.61143721 2.31182861 19.71847534 C-0.1081932 17.91829261 -1.51357885 16.9868734 -4.57836914 17.06958008 C-7.233516 18.08971968 -9.38174028 19.30307733 -11.74609375 20.88671875 C-12.65456055 21.48822754 -13.56302734 22.08973633 -14.49902344 22.70947266 C-15.4687207 23.36222168 -16.43841797 24.0149707 -17.4375 24.6875 C-19.51351186 26.06502518 -21.59035544 27.4412976 -23.66796875 28.81640625 C-24.72290527 29.51652832 -25.7778418 30.21665039 -26.86474609 30.93798828 C-31.61926459 34.06496719 -36.43475201 37.09276366 -41.25 40.125 C-50.65135839 46.06954477 -59.83956201 52.28909226 -68.98730469 58.61474609 C-72.66772665 61.14782642 -76.38956224 63.61700512 -80.11328125 66.0859375 C-82.64631052 67.7654833 -85.17236216 69.45501558 -87.69628906 71.14819336 C-89.52167968 72.36878896 -91.35248749 73.58096599 -93.18359375 74.79296875 C-96.55339894 77.02626122 -99.90137754 79.28983429 -103.24391174 81.56358337 C-105.83364969 83.32007994 -108.43282925 85.06229154 -111.03347778 86.80258179 C-112.33754195 87.67951986 -113.63780023 88.56214601 -114.93405151 89.45059204 C-116.77956703 90.71413083 -118.63786973 91.95643576 -120.5 93.1953125 C-121.5828125 93.92766113 -122.665625 94.66000977 -123.78125 95.41455078 C-127.50836056 97.25040151 -129.89512682 97.42419493 -134 97 C-137.25370755 94.91429003 -137.86799506 93.45761712 -138.9375 89.75 C-137.82217062 85.28868249 -136.94814882 84.87261263 -133.28515625 82.3203125 C-132.28427979 81.62035156 -131.28340332 80.92039062 -130.25219727 80.19921875 C-125.30542452 76.85408484 -120.33106954 73.5551211 -115.32086182 70.30603027 C-112.13418243 68.23911625 -108.9539867 66.16226747 -105.7734375 64.0859375 C-105.12422333 63.66235962 -104.47500916 63.23878174 -103.80612183 62.80236816 C-97.21519946 58.49717895 -90.66781675 54.12780577 -84.125 49.75 C-74.7438025 43.47575749 -65.32049398 37.27087655 -55.85791016 31.12011719 C-50.71750248 27.77745265 -45.59314316 24.41422617 -40.5 21 C-33.92816587 16.59634993 -27.31131057 12.26250653 -20.6875 7.9375 C-19.66527344 7.26912109 -18.64304687 6.60074219 -17.58984375 5.91210938 C-16.6359375 5.29013672 -15.68203125 4.66816406 -14.69921875 4.02734375 C-13.84158936 3.46781006 -12.98395996 2.90827637 -12.1003418 2.33178711 C-8.10092592 -0.20416705 -4.68050539 -0.68787981 0 0 Z " fill="#1EA2FB" transform="translate(287,383)"/>
  <path d="M0 0 C0.33 0 0.66 0 1 0 C1 30.69 1 61.38 1 93 C1.66 93 2.32 93 3 93 C3 93.66 3 94.32 3 95 C4.65 95.33 6.3 95.66 8 96 C6.25 96.625 6.25 96.625 4 97 C2.68 96.34 1.36 95.68 0 95 C0 63.65 0 32.3 0 0 Z " fill="#1D99EC" transform="translate(160,501)"/>
  <path d="M0 0 C0.33 0 0.66 0 1 0 C1 3.63 1 7.26 1 11 C1.66 11 2.32 11 3 11 C3 11.66 3 12.32 3 13 C4.65 13.33 6.3 13.66 8 14 C6.25 14.625 6.25 14.625 4 15 C2.68 14.34 1.36 13.68 0 13 C0 8.71 0 4.42 0 0 Z " fill="#22A4F0" transform="translate(160,583)"/>
  <path d="M0 0 C2.51850179 1.2592509 4.1230616 2.92196105 6 5 C4.948125 4.649375 3.89625 4.29875 2.8125 3.9375 C-0.7954681 3.05029473 -2.52632489 2.94737118 -6 4 C-2.60606061 0 -2.60606061 0 0 0 Z " fill="#179EF3" transform="translate(213,467)"/>
  <path d="M0 0 C0 0.66 0 1.32 0 2 C-5.2734375 5.22265625 -5.2734375 5.22265625 -7 6 C-7.66 5.67 -8.32 5.34 -9 5 C-7.87926138 4.16094435 -6.75325453 3.32892169 -5.625 2.5 C-4.99851563 2.0359375 -4.37203125 1.571875 -3.7265625 1.09375 C-2 0 -2 0 0 0 Z " fill="#1697F5" transform="translate(229,417)"/>
  <text style="fill: rgb(15, 159, 250); font-weight: 700; white-space: pre;" transform="matrix(8.984903, 0, 0, 10.705547, -4193.067934, -2374.121129)" x="511.114" y="276.418"> 3DGhar</text>
</svg>